<?xml version="1.0" encoding="UTF-8" standalone="no"?>
<!DOCTYPE svg PUBLIC "-//W3C//DTD SVG 1.1//EN" "http://www.w3.org/Graphics/SVG/1.1/DTD/svg11.dtd">
<svg width="100%" height="100%" viewBox="0 0 2000 882" version="1.1" xmlns="http://www.w3.org/2000/svg" xmlns:xlink="http://www.w3.org/1999/xlink" xml:space="preserve" xmlns:serif="http://www.serif.com/" style="fill-rule:evenodd;clip-rule:evenodd;stroke-linecap:round;stroke-linejoin:round;stroke-miterlimit:1.5;">
    <g id="Geoinfo-Conference" serif:id="Geoinfo Conference" transform="matrix(1,0,0,1,879,500)">
        <g transform="matrix(0.8,0,0,1,0,0)">
            <path d="M146.139,-74.421L100.13,-74.421C96.313,-74.421 93.345,-71.453 93.345,-67.848C93.345,-64.456 96.313,-61.488 100.13,-61.488L139.142,-61.488C136.598,-30.956 114.123,-12.51 86.56,-12.51C56.452,-12.51 27.192,-38.165 27.192,-74.209C27.192,-110.254 56.24,-135.909 86.136,-135.909C98.433,-135.909 110.095,-131.668 116.88,-125.944C119.848,-123.611 121.968,-121.915 124.937,-121.915C128.541,-121.915 131.721,-124.672 131.721,-128.7C131.721,-131.88 130.025,-134.213 125.785,-137.181C114.971,-145.238 102.038,-149.903 86.348,-149.903C48.607,-149.903 11.926,-118.947 11.926,-74.209C11.926,-29.472 49.031,1.484 86.56,1.484C122.604,1.484 151.652,-23.535 153.348,-65.728C153.772,-70.817 151.228,-74.421 146.139,-74.421Z" style="fill:white;fill-rule:nonzero;"/>
            <path d="M193.103,-13.146L193.103,-68.273L243.777,-68.273C247.382,-68.273 250.138,-71.241 250.138,-74.633C250.138,-78.026 247.382,-80.994 243.777,-80.994L193.103,-80.994L193.103,-135.273L263.708,-135.273C267.1,-135.273 270.281,-138.241 270.281,-141.846C270.281,-145.45 267.1,-148.419 263.708,-148.419L186.318,-148.419C181.654,-148.419 178.261,-145.238 178.261,-140.574L178.261,-8.057C178.261,-3.392 181.654,0 186.318,0L265.828,0C269.221,0 272.401,-2.968 272.401,-6.573C272.401,-10.177 269.221,-13.146 265.828,-13.146L193.103,-13.146Z" style="fill:white;fill-rule:nonzero;"/>
            <path d="M356.046,-149.903C319.153,-149.903 282.472,-118.947 282.472,-74.209C282.472,-29.472 319.153,1.484 356.046,1.484C393.15,1.484 429.831,-29.472 429.831,-74.209C429.831,-118.947 393.15,-149.903 356.046,-149.903ZM356.046,-136.121C385.729,-136.121 414.565,-111.102 414.565,-74.209C414.565,-37.529 385.729,-12.298 356.046,-12.298C326.574,-12.298 297.738,-37.529 297.738,-74.209C297.738,-111.102 326.574,-136.121 356.046,-136.121Z" style="fill:white;fill-rule:nonzero;"/>
            <path d="M463.437,-149.055C459.196,-149.055 455.804,-145.662 455.804,-141.422L455.804,-6.785C455.804,-2.756 459.196,0.848 463.437,0.848C467.465,0.848 470.646,-2.756 470.646,-6.785L470.646,-141.422C470.646,-145.662 467.465,-149.055 463.437,-149.055Z" style="fill:white;fill-rule:nonzero;"/>
            <path d="M608.357,-149.055C604.541,-149.055 600.936,-145.45 600.936,-141.422L600.936,-26.291L512.945,-144.814C510.613,-147.782 508.493,-149.055 505.312,-149.055C502.132,-149.055 498.739,-146.722 498.739,-142.27L498.739,-6.997C498.739,-2.968 502.132,0.848 506.16,0.848C509.977,0.848 513.581,-2.968 513.581,-6.997L513.581,-121.915L601.572,-3.604C603.904,-0.424 606.237,0.848 609.205,0.848C612.598,0.848 615.778,-1.696 615.778,-5.937L615.778,-141.422C615.778,-145.45 612.386,-149.055 608.357,-149.055Z" style="fill:white;fill-rule:nonzero;"/>
            <path d="M735.891,-141.846C735.891,-145.45 732.711,-148.419 729.318,-148.419L651.928,-148.419C647.264,-148.419 643.871,-145.238 643.871,-140.574L643.871,-6.785C643.871,-2.756 647.264,0.848 651.292,0.848C655.321,0.848 658.713,-2.756 658.713,-6.785L658.713,-67.424L716.385,-67.424C719.989,-67.424 722.957,-70.393 722.957,-73.785C722.957,-77.39 719.989,-80.146 716.385,-80.146L658.713,-80.146L658.713,-135.273L729.318,-135.273C732.711,-135.273 735.891,-138.241 735.891,-141.846Z" style="fill:white;fill-rule:nonzero;"/>
            <path d="M822.186,-149.903C785.293,-149.903 748.613,-118.947 748.613,-74.209C748.613,-29.472 785.293,1.484 822.186,1.484C859.29,1.484 895.971,-29.472 895.971,-74.209C895.971,-118.947 859.29,-149.903 822.186,-149.903ZM822.186,-136.121C851.869,-136.121 880.705,-111.102 880.705,-74.209C880.705,-37.529 851.869,-12.298 822.186,-12.298C792.714,-12.298 763.878,-37.529 763.878,-74.209C763.878,-111.102 792.714,-136.121 822.186,-136.121Z" style="fill:white;fill-rule:nonzero;"/>
        </g>
        <g transform="matrix(0.8,0,0,1,0,0)">
            <path d="M124.937,143.518C122.18,143.518 119.848,145.214 116.88,147.546C110.095,153.271 98.433,157.512 85.924,157.512C56.452,157.512 27.192,131.856 27.192,95.812C27.192,59.767 56.24,34.112 86.136,34.112C98.433,34.112 110.095,38.353 116.88,44.078C119.848,46.41 121.968,48.106 124.937,48.106C128.541,48.106 131.721,45.35 131.721,41.321C131.721,38.141 130.025,35.808 125.785,32.84C114.971,24.783 102.038,20.119 86.348,20.119C48.607,20.119 11.926,51.074 11.926,95.812C11.926,140.55 49.031,171.505 85.924,171.505C101.826,171.505 115.183,166.841 125.997,158.572C129.601,155.815 131.721,153.059 131.721,150.303C131.721,146.274 128.541,143.518 124.937,143.518Z" style="fill:white;fill-rule:nonzero;"/>
            <path d="M220.667,20.119C183.774,20.119 147.093,51.074 147.093,95.812C147.093,140.55 183.774,171.505 220.667,171.505C257.771,171.505 294.452,140.55 294.452,95.812C294.452,51.074 257.771,20.119 220.667,20.119ZM220.667,33.9C250.35,33.9 279.186,58.919 279.186,95.812C279.186,132.493 250.35,157.724 220.667,157.724C191.195,157.724 162.359,132.493 162.359,95.812C162.359,58.919 191.195,33.9 220.667,33.9Z" style="fill:white;fill-rule:nonzero;"/>
            <path d="M430.043,20.967C426.226,20.967 422.622,24.571 422.622,28.6L422.622,143.73L334.631,25.207C332.299,22.239 330.178,20.967 326.998,20.967C323.817,20.967 320.425,23.299 320.425,27.751L320.425,163.024C320.425,167.053 323.817,170.869 327.846,170.869C331.662,170.869 335.267,167.053 335.267,163.024L335.267,48.106L423.258,166.417C425.59,169.597 427.922,170.869 430.891,170.869C434.283,170.869 437.464,168.325 437.464,164.085L437.464,28.6C437.464,24.571 434.071,20.967 430.043,20.967Z" style="fill:white;fill-rule:nonzero;"/>
            <path d="M557.577,28.176C557.577,24.571 554.396,21.603 551.004,21.603L473.614,21.603C468.95,21.603 465.557,24.783 465.557,29.448L465.557,163.236C465.557,167.265 468.95,170.869 472.978,170.869C477.007,170.869 480.399,167.265 480.399,163.236L480.399,102.597L538.07,102.597C541.675,102.597 544.643,99.628 544.643,96.236C544.643,92.632 541.675,89.875 538.07,89.875L480.399,89.875L480.399,34.748L551.004,34.748C554.396,34.748 557.577,31.78 557.577,28.176Z" style="fill:white;fill-rule:nonzero;"/>
            <path d="M595.211,156.876L595.211,101.749L645.886,101.749C649.49,101.749 652.247,98.78 652.247,95.388C652.247,91.996 649.49,89.027 645.886,89.027L595.211,89.027L595.211,34.748L665.816,34.748C669.209,34.748 672.389,31.78 672.389,28.176C672.389,24.571 669.209,21.603 665.816,21.603L588.427,21.603C583.762,21.603 580.37,24.783 580.37,29.448L580.37,161.964C580.37,166.629 583.762,170.021 588.427,170.021L667.936,170.021C671.329,170.021 674.509,167.053 674.509,163.448C674.509,159.844 671.329,156.876 667.936,156.876L595.211,156.876Z" style="fill:white;fill-rule:nonzero;"/>
            <path d="M797.803,158.996L759.638,111.926C783.385,107.261 797.591,90.935 797.591,67.188C797.591,40.473 777.236,21.603 744.16,21.603L705.359,21.603C700.695,21.603 697.302,24.783 697.302,29.448L697.302,163.448C697.302,167.477 700.483,170.869 704.723,170.869C708.752,170.869 712.144,167.477 712.144,163.448L712.144,113.41L744.372,113.41L787.413,167.901C788.686,169.385 790.806,170.657 793.138,170.657C796.955,170.657 799.711,167.901 799.711,164.085C799.711,162.176 799.075,160.48 797.803,158.996ZM712.144,34.536L743.736,34.536C768.331,34.536 783.173,46.622 783.173,67.188C783.173,89.663 768.331,100.689 743.736,100.689L712.144,100.689L712.144,34.536Z" style="fill:white;fill-rule:nonzero;"/>
            <path d="M838.406,156.876L838.406,101.749L889.08,101.749C892.685,101.749 895.441,98.78 895.441,95.388C895.441,91.996 892.685,89.027 889.08,89.027L838.406,89.027L838.406,34.748L909.011,34.748C912.403,34.748 915.583,31.78 915.583,28.176C915.583,24.571 912.403,21.603 909.011,21.603L831.621,21.603C826.956,21.603 823.564,24.783 823.564,29.448L823.564,161.964C823.564,166.629 826.956,170.021 831.621,170.021L911.131,170.021C914.523,170.021 917.704,167.053 917.704,163.448C917.704,159.844 914.523,156.876 911.131,156.876L838.406,156.876Z" style="fill:white;fill-rule:nonzero;"/>
            <path d="M1050.11,20.967C1046.3,20.967 1042.69,24.571 1042.69,28.6L1042.69,143.73L954.702,25.207C952.37,22.239 950.25,20.967 947.069,20.967C943.889,20.967 940.497,23.299 940.497,27.751L940.497,163.024C940.497,167.053 943.889,170.869 947.917,170.869C951.734,170.869 955.338,167.053 955.338,163.024L955.338,48.106L1043.33,166.417C1045.66,169.597 1047.99,170.869 1050.96,170.869C1054.36,170.869 1057.54,168.325 1057.54,164.085L1057.54,28.6C1057.54,24.571 1054.14,20.967 1050.11,20.967Z" style="fill:white;fill-rule:nonzero;"/>
            <path d="M1196.52,143.518C1193.76,143.518 1191.43,145.214 1188.46,147.546C1181.68,153.271 1170.02,157.512 1157.51,157.512C1128.03,157.512 1098.77,131.856 1098.77,95.812C1098.77,59.767 1127.82,34.112 1157.72,34.112C1170.02,34.112 1181.68,38.353 1188.46,44.078C1191.43,46.41 1193.55,48.106 1196.52,48.106C1200.12,48.106 1203.3,45.35 1203.3,41.321C1203.3,38.141 1201.61,35.808 1197.37,32.84C1186.55,24.783 1173.62,20.119 1157.93,20.119C1120.19,20.119 1083.51,51.074 1083.51,95.812C1083.51,140.55 1120.61,171.505 1157.51,171.505C1173.41,171.505 1186.77,166.841 1197.58,158.572C1201.18,155.815 1203.3,153.059 1203.3,150.303C1203.3,146.274 1200.12,143.518 1196.52,143.518Z" style="fill:white;fill-rule:nonzero;"/>
            <path d="M1240.94,156.876L1240.94,101.749L1291.61,101.749C1295.22,101.749 1297.97,98.78 1297.97,95.388C1297.97,91.996 1295.22,89.027 1291.61,89.027L1240.94,89.027L1240.94,34.748L1311.54,34.748C1314.93,34.748 1318.12,31.78 1318.12,28.176C1318.12,24.571 1314.93,21.603 1311.54,21.603L1234.15,21.603C1229.49,21.603 1226.1,24.783 1226.1,29.448L1226.1,161.964C1226.1,166.629 1229.49,170.021 1234.15,170.021L1313.66,170.021C1317.06,170.021 1320.24,167.053 1320.24,163.448C1320.24,159.844 1317.06,156.876 1313.66,156.876L1240.94,156.876Z" style="fill:white;fill-rule:nonzero;"/>
        </g>
    </g>
    <g id="October-1---2" serif:id="October 1 &amp; 2" transform="matrix(1,0,0,1,886,766)">
        <g transform="matrix(0.8,0,0,1,0,0)">
            <path d="M39.705,-70.709C22.303,-70.709 5.001,-56.107 5.001,-35.004C5.001,-13.902 22.303,0.7 39.705,0.7C57.207,0.7 74.509,-13.902 74.509,-35.004C74.509,-56.107 57.207,-70.709 39.705,-70.709ZM39.705,-64.208C53.707,-64.208 67.308,-52.407 67.308,-35.004C67.308,-17.702 53.707,-5.801 39.705,-5.801C25.803,-5.801 12.202,-17.702 12.202,-35.004C12.202,-52.407 25.803,-64.208 39.705,-64.208Z" style="fill:white;fill-rule:nonzero;"/>
            <path d="M126.316,-13.902C125.116,-13.902 124.016,-13.202 123.215,-12.102C120.115,-7.701 114.614,-5.501 109.614,-5.501C100.513,-5.501 90.311,-12.202 90.311,-26.003C90.311,-39.905 100.513,-46.606 109.614,-46.606C114.614,-46.606 120.115,-44.406 123.215,-40.005C124.016,-38.905 125.116,-38.205 126.316,-38.205C127.916,-38.205 129.316,-39.305 129.316,-41.005C129.316,-42.205 128.516,-43.005 127.816,-43.905C123.415,-49.706 116.715,-52.607 109.314,-52.607C97.612,-52.607 83.51,-43.805 83.51,-26.003C83.51,-8.301 97.612,0.5 109.314,0.5C116.715,0.5 123.415,-2.4 127.816,-8.201C128.516,-9.101 129.316,-9.901 129.316,-11.101C129.316,-12.802 127.916,-13.902 126.316,-13.902Z" style="fill:white;fill-rule:nonzero;"/>
            <path d="M157.92,-6.101C156.82,-5.801 155.519,-5.401 153.919,-5.401C151.319,-5.401 149.919,-6.601 149.919,-9.801L149.919,-46.206L158.32,-46.206C160.02,-46.206 161.32,-47.306 161.32,-49.106C161.32,-50.906 160.02,-52.007 158.32,-52.007L149.919,-52.007L149.919,-61.108C149.919,-63.008 148.419,-64.508 146.518,-64.508C144.618,-64.508 143.118,-63.008 143.118,-61.108L143.118,-52.007L138.217,-52.007C136.517,-52.007 135.317,-50.906 135.317,-49.106C135.317,-47.306 136.517,-46.206 138.217,-46.206L143.118,-46.206L143.118,-9.401C143.118,-1.3 147.718,0.5 152.519,0.5C156.32,0.5 161.32,-0.5 161.32,-3.8C161.32,-5.501 159.82,-6.701 157.92,-6.101Z" style="fill:white;fill-rule:nonzero;"/>
            <path d="M192.874,-52.607C181.373,-52.607 167.071,-43.805 167.071,-26.003C167.071,-8.101 181.373,0.7 192.874,0.7C204.476,0.7 218.777,-8.101 218.777,-26.003C218.777,-43.805 204.476,-52.607 192.874,-52.607ZM192.874,-46.606C201.675,-46.606 211.976,-39.905 211.976,-26.003C211.976,-12.002 201.675,-5.301 192.874,-5.301C184.173,-5.301 173.872,-12.002 173.872,-26.003C173.872,-39.905 184.173,-46.606 192.874,-46.606Z" style="fill:white;fill-rule:nonzero;"/>
            <path d="M254.282,-52.607C246.581,-52.607 239.08,-48.806 235.679,-41.505L235.679,-48.806C235.679,-49.106 235.679,-49.406 235.579,-49.606L235.579,-67.908C235.579,-69.809 234.079,-71.409 232.179,-71.409C230.379,-71.409 228.779,-69.809 228.779,-67.908L228.779,-2.9C228.779,-1.1 230.379,0.6 232.279,0.6C234.079,0.6 235.679,-1.1 235.679,-2.9L235.679,-11.301C238.58,-4.101 245.881,0.7 254.282,0.7C265.483,0.7 279.085,-8.001 279.085,-26.003C279.085,-43.805 265.483,-52.607 254.282,-52.607ZM253.582,-5.301C245.081,-5.301 235.279,-11.901 235.279,-26.003C235.279,-40.405 245.081,-46.606 253.582,-46.606C262.083,-46.606 272.284,-40.005 272.284,-26.003C272.284,-11.901 262.083,-5.301 253.582,-5.301Z" style="fill:white;fill-rule:nonzero;"/>
            <path d="M311.239,-52.607C299.837,-52.607 285.836,-43.805 285.836,-26.003C285.836,-8.001 299.437,0.5 312.039,0.5C318.34,0.5 324.441,-1.4 328.641,-5.201C330.141,-6.601 330.541,-7.501 330.541,-8.401C330.541,-9.901 329.541,-11.101 327.841,-11.101C326.941,-11.101 326.141,-10.601 324.841,-9.601C321.44,-6.801 317.04,-5.301 312.239,-5.301C303.138,-5.301 293.637,-11.001 292.837,-23.303L331.841,-23.303C334.642,-23.303 336.242,-24.603 336.242,-27.203C336.242,-43.705 322.64,-52.607 311.239,-52.607ZM311.239,-46.606C319.34,-46.606 328.841,-41.005 329.641,-28.804L292.837,-28.804C293.737,-41.005 303.238,-46.606 311.239,-46.606Z" style="fill:white;fill-rule:nonzero;"/>
            <path d="M371.346,-52.507C360.245,-52.507 353.644,-43.105 353.044,-39.805L353.044,-48.806C353.044,-50.706 351.544,-52.307 349.644,-52.307C347.743,-52.307 346.243,-50.706 346.243,-48.806L346.243,-3C346.243,-1.1 347.743,0.5 349.644,0.5C351.544,0.5 353.044,-1.1 353.044,-3L353.044,-31.104C354.144,-38.005 360.945,-45.906 370.846,-45.906C373.747,-45.906 375.447,-47.206 375.447,-49.206C375.447,-51.106 373.947,-52.507 371.346,-52.507Z" style="fill:white;fill-rule:nonzero;"/>
        </g>
        <g transform="matrix(0.8,0,0,1,60.5516,0)">
            <path d="M346.763,-70.009L336.862,-70.009C335.262,-70.009 333.862,-68.709 333.862,-67.108C333.862,-65.308 335.262,-64.008 336.862,-64.008L343.763,-64.008L343.763,-3.1C343.763,-1.3 345.263,0.4 347.163,0.4C348.964,0.4 350.564,-1.3 350.564,-3.1L350.564,-66.308C350.564,-68.509 348.964,-70.009 346.763,-70.009Z" style="fill:white;fill-rule:nonzero;"/>
            <path d="M414.672,0.9C424.273,0.9 431.974,-3.8 435.774,-11.801L435.774,-8.901C435.774,-2.7 438.875,0.5 444.776,0.5C448.176,0.5 452.277,-0.9 452.277,-3.5C452.277,-5.401 450.376,-6.701 448.876,-6.201C444.276,-4.501 440.875,-5.501 440.875,-11.001L440.875,-34.104L445.276,-34.104C446.876,-34.104 448.376,-35.504 448.376,-37.205C448.376,-38.805 446.876,-40.105 445.276,-40.105L437.875,-40.105C435.674,-40.105 434.174,-38.605 434.174,-36.405L434.174,-22.803C434.174,-13.202 425.773,-5.101 414.872,-5.101C405.371,-5.101 397.47,-11.201 397.47,-20.803C397.47,-30.104 404.871,-36.605 414.372,-36.605C417.772,-36.605 418.172,-39.505 416.372,-42.505L403.17,-64.008L433.274,-64.008C434.874,-64.008 436.375,-65.308 436.375,-67.108C436.375,-68.709 434.874,-70.009 433.274,-70.009L400.97,-70.009C397.07,-70.009 394.869,-66.508 396.97,-63.108L410.171,-41.605C398.77,-40.105 390.669,-32.404 390.669,-20.803C390.669,-7.301 402.07,0.9 414.672,0.9Z" style="fill:white;fill-rule:nonzero;"/>
            <path d="M507.783,-70.709C496.482,-70.709 488.181,-63.208 486.581,-52.807C486.081,-50.406 487.381,-48.406 489.581,-48.406C491.381,-48.406 492.882,-49.806 493.182,-51.406C494.382,-60.008 500.883,-64.608 507.983,-64.608C515.584,-64.608 522.685,-59.407 522.685,-51.006C522.685,-42.705 515.684,-37.105 503.783,-24.503L488.681,-8.201C485.381,-4.701 487.781,0 492.482,0L527.386,0C528.986,0 530.486,-1.3 530.486,-3.1C530.486,-4.801 528.986,-6.201 527.386,-6.201L495.282,-6.201L510.084,-21.903C521.585,-34.104 529.486,-41.105 529.486,-50.906C529.486,-61.608 520.185,-70.709 507.783,-70.709Z" style="fill:white;fill-rule:nonzero;"/>
        </g>
    </g>
    <g transform="matrix(0.8,0,0,1,1578,766)">
        <path id="DELFT2018" d="M25.428,-70.009L10.426,-70.009C8.226,-70.009 6.626,-68.509 6.626,-66.308L6.626,-3.8C6.626,-1.6 8.226,0 10.426,0L25.428,0C46.531,0 60.333,-12.902 60.333,-34.904C60.333,-57.207 46.531,-70.009 25.428,-70.009ZM25.428,-6.001L13.627,-6.001L13.627,-64.008L25.428,-64.008C43.13,-64.008 53.432,-54.107 53.432,-34.904C53.432,-16.002 43.13,-6.001 25.428,-6.001Z" style="fill:white;fill-rule:nonzero;"/>
        <path d="M78.585,-6.201L78.585,-32.204L102.488,-32.204C104.188,-32.204 105.488,-33.604 105.488,-35.204C105.488,-36.805 104.188,-38.205 102.488,-38.205L78.585,-38.205L78.585,-63.808L111.889,-63.808C113.489,-63.808 114.989,-65.208 114.989,-66.908C114.989,-68.609 113.489,-70.009 111.889,-70.009L75.384,-70.009C73.184,-70.009 71.584,-68.509 71.584,-66.308L71.584,-3.8C71.584,-1.6 73.184,0 75.384,0L112.889,0C114.489,0 115.989,-1.4 115.989,-3.1C115.989,-4.801 114.489,-6.201 112.889,-6.201L78.585,-6.201Z" style="fill:white;fill-rule:nonzero;"/>
        <path d="M133.742,-6.201L133.742,-66.708C133.742,-68.709 132.142,-70.309 130.241,-70.309C128.241,-70.309 126.741,-68.709 126.741,-66.708L126.741,-3.8C126.741,-1.6 128.341,0 130.541,0L165.146,0C166.746,0 168.246,-1.4 168.246,-3.1C168.246,-4.801 166.746,-6.201 165.146,-6.201L133.742,-6.201Z" style="fill:white;fill-rule:nonzero;"/>
        <path d="M222.403,-66.908C222.403,-68.609 220.903,-70.009 219.302,-70.009L182.798,-70.009C180.598,-70.009 178.997,-68.509 178.997,-66.308L178.997,-3.2C178.997,-1.3 180.598,0.4 182.498,0.4C184.398,0.4 185.998,-1.3 185.998,-3.2L185.998,-31.804L213.202,-31.804C214.902,-31.804 216.302,-33.204 216.302,-34.804C216.302,-36.505 214.902,-37.805 213.202,-37.805L185.998,-37.805L185.998,-63.808L219.302,-63.808C220.903,-63.808 222.403,-65.208 222.403,-66.908Z" style="fill:white;fill-rule:nonzero;"/>
        <path d="M276.56,-70.009L233.154,-70.009C231.554,-70.009 230.154,-68.609 230.154,-67.008C230.154,-65.208 231.554,-63.908 233.154,-63.908L251.456,-63.908L251.456,-3.2C251.456,-1.3 252.957,0.4 254.957,0.4C256.857,0.4 258.357,-1.3 258.357,-3.2L258.357,-63.908L276.56,-63.908C278.16,-63.908 279.66,-65.208 279.66,-67.008C279.66,-68.609 278.16,-70.009 276.56,-70.009Z" style="fill:white;fill-rule:nonzero;"/>
        <path d="M309.189,-70.709C297.887,-70.709 289.586,-63.208 287.986,-52.807C287.486,-50.406 288.786,-48.406 290.986,-48.406C292.787,-48.406 294.287,-49.806 294.587,-51.406C295.787,-60.008 302.288,-64.608 309.389,-64.608C316.99,-64.608 324.091,-59.407 324.091,-51.006C324.091,-42.705 317.09,-37.105 305.188,-24.503L290.086,-8.201C286.786,-4.701 289.186,0 293.887,0L328.791,0C330.391,0 331.891,-1.3 331.891,-3.1C331.891,-4.801 330.391,-6.201 328.791,-6.201L296.687,-6.201L311.489,-21.903C322.99,-34.104 330.891,-41.105 330.891,-50.906C330.891,-61.608 321.59,-70.709 309.189,-70.709Z" style="fill:white;fill-rule:nonzero;"/>
        <path d="M367.596,-70.709C352.994,-70.709 340.893,-58.007 340.893,-36.305L340.893,-33.904C340.893,-12.102 352.994,0.5 367.596,0.5C382.098,0.5 394.199,-12.102 394.199,-33.904L394.199,-36.305C394.199,-58.007 382.098,-70.709 367.596,-70.709ZM367.596,-64.708C379.297,-64.708 387.398,-53.207 387.398,-36.305L387.398,-33.904C387.398,-16.902 379.297,-5.501 367.596,-5.501C355.794,-5.501 347.693,-16.902 347.693,-33.904L347.693,-36.305C347.693,-53.207 355.794,-64.708 367.596,-64.708Z" style="fill:white;fill-rule:nonzero;"/>
        <path d="M413.602,-70.009L403.7,-70.009C402.1,-70.009 400.7,-68.709 400.7,-67.108C400.7,-65.308 402.1,-64.008 403.7,-64.008L410.601,-64.008L410.601,-3.1C410.601,-1.3 412.102,0.4 414.002,0.4C415.802,0.4 417.402,-1.3 417.402,-3.1L417.402,-66.308C417.402,-68.509 415.802,-70.009 413.602,-70.009Z" style="fill:white;fill-rule:nonzero;"/>
        <path d="M462.108,-39.005C466.708,-42.205 469.709,-47.406 469.709,-53.207C469.709,-62.508 462.608,-70.709 451.406,-70.709C440.205,-70.709 433.104,-62.508 433.104,-53.207C433.104,-47.406 436.105,-42.205 440.705,-39.005C433.904,-35.804 428.904,-29.304 428.904,-20.403C428.904,-7.401 439.905,0.9 451.406,0.9C462.908,0.9 473.909,-7.401 473.909,-20.403C473.909,-29.304 468.909,-35.804 462.108,-39.005ZM439.505,-53.107C439.505,-59.007 444.005,-64.808 451.406,-64.808C458.807,-64.808 463.308,-59.007 463.308,-53.107C463.308,-46.806 458.107,-41.405 451.406,-41.405C444.706,-41.405 439.505,-46.806 439.505,-53.107ZM451.406,-5.001C443.105,-5.001 435.704,-11.101 435.704,-20.403C435.704,-29.704 442.905,-35.804 451.406,-35.804C459.907,-35.804 467.108,-29.704 467.108,-20.403C467.108,-11.001 459.707,-5.001 451.406,-5.001Z" style="fill:white;fill-rule:nonzero;"/>
    </g>
    <g id="K-Outlines" serif:id="K Outlines">
        <path d="M462.64,264L462.347,798.146L640.137,797.772C726.484,796.877 781.405,744.479 812.567,705.317C851.048,656.956 871.066,575.872 868.738,509.388C866.199,436.872 844.385,356.3 794.945,306.559L794.647,264L772.475,264L772.397,223.966L748,224L748,183L724,183L724,142L700,142L700,101L676,101L676,59L653,59L653,18L605,18L605,59L581,59L581,101L558,101L558,142L534,142L534,183L510,183L510,224L486,224L486,264L462.64,264Z" style="fill:none;stroke:white;stroke-width:5px;"/>
        <path d="M38,443L185,443C185.082,414.364 187.529,404.852 196.355,397.019C211.696,383.406 241.756,389.773 250.507,399.986C265.391,417.358 253.809,451.851 237.5,457.107C223.326,461.675 216.409,457.054 191,458L191,579C210.103,568.346 236.239,565.657 252.629,576.473C271.041,588.624 287.689,619.618 268.051,647.105C253.659,667.25 218.796,672.978 202.642,664.1C180.799,652.096 172.572,630.492 171,598L11,599C13.356,663.889 28.627,707.747 74.094,752.023C105.763,782.862 162.87,807.498 229,807C287.658,806.558 339.158,787.4 370.923,760.869C426.339,714.584 432.823,669.902 433,633C433.439,541.51 372,507 372,507C390.922,475.761 408.514,458.316 406.986,394.994C405.793,345.583 376.603,306.991 354,292C332.778,277.926 284.149,202.231 284.798,132.695C285.267,82.508 294.938,79.433 298,74C299.943,70.553 311.09,64.871 311,58C310.715,36.271 249.197,27.94 237,28C226.297,28.052 156.07,30.974 155,58C154.642,67.05 164.217,69.071 167,74C173.606,85.7 179.396,99.06 178.682,135.059C177.576,190.807 146.887,262.153 111,292C64.402,330.756 37.978,372.819 38,443Z" style="fill:none;stroke:white;stroke-width:5px;"/>
        <path d="M723.22,509.607L868.746,509.607" style="fill:none;stroke:white;stroke-width:5px;"/>
        <path d="M462.506,509.607L604,510" style="fill:none;stroke:white;stroke-width:5px;"/>
        <path d="M605,387L604,646C640.176,647.771 677.832,638.082 698.057,611.183C720.797,580.94 724.239,532.813 723,510C720.524,464.39 715.067,448.615 699.934,428.079C679.965,400.981 646.447,383.48 605,387Z" style="fill:none;stroke:white;stroke-width:5px;"/>
        <path d="M112,292L355,292" style="fill:none;stroke:white;stroke-width:5px;"/>
    </g>
    <g id="K-Lines" serif:id="K Lines">
        <path d="M469,509.607L469,264" style="fill:none;stroke:white;stroke-width:1px;"/>
        <g transform="matrix(1,0,0,1,10,0)">
            <path d="M469,509.607L469,264" style="fill:none;stroke:white;stroke-width:1px;"/>
        </g>
        <g transform="matrix(1.16286,0,0,1.16286,-56.3821,-82.9955)">
            <path d="M469,509.607L469,264" style="fill:none;stroke:white;stroke-width:0.86px;"/>
        </g>
        <g transform="matrix(1.16286,0,0,1.16286,-46.3821,-82.9955)">
            <path d="M469,509.607L469,264" style="fill:none;stroke:white;stroke-width:0.86px;"/>
        </g>
        <g transform="matrix(1.16286,0,0,1.16286,-36.3821,-82.9955)">
            <path d="M469,509.607L469,264" style="fill:none;stroke:white;stroke-width:0.86px;"/>
        </g>
        <g transform="matrix(1.32979,0,0,1.32979,-104.674,-168.066)">
            <path d="M469,509.607L469,264" style="fill:none;stroke:white;stroke-width:0.75px;"/>
        </g>
        <g transform="matrix(1.32979,0,0,1.32979,-94.6738,-168.066)">
            <path d="M469,509.607L469,264" style="fill:none;stroke:white;stroke-width:0.75px;"/>
        </g>
        <g transform="matrix(1.49673,0,0,1.49673,-162.965,-253.136)">
            <path d="M469,509.607L469,264" style="fill:none;stroke:white;stroke-width:0.67px;"/>
        </g>
        <g transform="matrix(1.49673,0,0,1.49673,-152.965,-253.136)">
            <path d="M469,509.607L469,264" style="fill:none;stroke:white;stroke-width:0.67px;"/>
        </g>
        <g transform="matrix(0.820852,0,0,0.820852,174.02,91.295)">
            <path d="M469,509.607L469,264" style="fill:none;stroke:white;stroke-width:1.22px;"/>
        </g>
        <g transform="matrix(0.820852,0,0,0.820852,184.02,91.295)">
            <path d="M469,509.607L469,264" style="fill:none;stroke:white;stroke-width:1.22px;"/>
        </g>
        <g transform="matrix(0.820852,0,0,0.820852,194.02,91.295)">
            <path d="M469,509.607L469,264" style="fill:none;stroke:white;stroke-width:1.22px;"/>
        </g>
        <g transform="matrix(0.820852,0,0,0.820852,204.02,91.295)">
            <path d="M469,509.607L469,264" style="fill:none;stroke:white;stroke-width:1.22px;"/>
        </g>
        <g transform="matrix(1.8345,0,0,1.8345,-261.383,-425.27)">
            <path d="M469,509.607L469,264" style="fill:none;stroke:white;stroke-width:0.55px;"/>
        </g>
        <g transform="matrix(1.5008,0,0,1.5008,-94.875,-378.211)">
            <path d="M469,509.607L469,264" style="fill:none;stroke:white;stroke-width:0.67px;"/>
        </g>
        <g transform="matrix(1.52116,0,0,1.52116,-64.4228,-383.586)">
            <path d="M469,509.607L469,264" style="fill:none;stroke:white;stroke-width:0.66px;"/>
        </g>
        <g transform="matrix(1.37051,0,0,1.37051,16.2307,-302.815)">
            <path d="M469,509.607L469,264" style="fill:none;stroke:white;stroke-width:0.73px;"/>
        </g>
        <g transform="matrix(0.681184,0,0,0.681184,349.525,-120.832)">
            <path d="M469,509.607L469,264" style="fill:none;stroke:white;stroke-width:1.47px;"/>
        </g>
        <g transform="matrix(0.506107,0,0,0.506107,441.636,-32.6123)">
            <path d="M469,509.607L469,264" style="fill:none;stroke:white;stroke-width:1.98px;"/>
        </g>
        <g transform="matrix(0.506107,0,0,0.506107,451.636,-32.6123)">
            <path d="M469,509.607L469,264" style="fill:none;stroke:white;stroke-width:1.98px;"/>
        </g>
        <g transform="matrix(0.506107,0,0,0.506107,461.636,-32.6123)">
            <path d="M469,509.607L469,264" style="fill:none;stroke:white;stroke-width:1.98px;"/>
        </g>
        <g transform="matrix(1.21739,0,0,1.21739,138.044,-179.391)">
            <path d="M469,509.607L469,264" style="fill:none;stroke:white;stroke-width:0.82px;"/>
        </g>
        <g transform="matrix(1.34361,0,0,1.34361,88.8475,-212.713)">
            <path d="M469,509.607L469,264" style="fill:none;stroke:white;stroke-width:0.74px;"/>
        </g>
        <g transform="matrix(1.32819,0,0,1.32819,106.077,-167.643)">
            <path d="M469,509.607L469,264" style="fill:none;stroke:white;stroke-width:0.75px;"/>
        </g>
        <g transform="matrix(1.32819,0,0,1.32819,116.077,-167.643)">
            <path d="M469,509.607L469,264" style="fill:none;stroke:white;stroke-width:0.75px;"/>
        </g>
        <g transform="matrix(1.16126,0,0,1.16126,204.369,-82.5729)">
            <path d="M469,509.607L469,264" style="fill:none;stroke:white;stroke-width:0.86px;"/>
        </g>
        <g transform="matrix(1.16126,0,0,1.16126,214.369,-82.5729)">
            <path d="M469,509.607L469,264" style="fill:none;stroke:white;stroke-width:0.86px;"/>
        </g>
        <g transform="matrix(1.16126,0,0,1.16126,224.369,-82.5729)">
            <path d="M469,509.607L469,264" style="fill:none;stroke:white;stroke-width:0.86px;"/>
        </g>
        <g transform="matrix(0.998399,0,0,0.998399,310.751,0.422617)">
            <path d="M469,509.607L469,264" style="fill:none;stroke:white;stroke-width:1px;"/>
        </g>
        <g transform="matrix(0.998399,0,0,0.998399,320.751,0.422617)">
            <path d="M469,509.607L469,264" style="fill:none;stroke:white;stroke-width:1px;"/>
        </g>
        <g transform="matrix(0.807037,0,0,0.807037,420.5,97.9423)">
            <path d="M469,509.607L469,264" style="fill:none;stroke:white;stroke-width:1.24px;"/>
        </g>
        <g transform="matrix(0.76225,0,0,0.76225,451.505,120.766)">
            <path d="M469,509.607L469,264" style="fill:none;stroke:white;stroke-width:1.31px;"/>
        </g>
        <g transform="matrix(0.705248,0,0,0.705248,488.239,149.814)">
            <path d="M469,509.607L469,264" style="fill:none;stroke:white;stroke-width:1.42px;"/>
        </g>
        <g transform="matrix(0.636223,0,0,0.636223,530.611,185.383)">
            <path d="M469,509.607L469,264" style="fill:none;stroke:white;stroke-width:1.57px;"/>
        </g>
        <g transform="matrix(0.557667,0,0,0.557667,577.454,225.416)">
            <path d="M469,509.607L469,264" style="fill:none;stroke:white;stroke-width:1.79px;"/>
        </g>
        <g transform="matrix(0.452167,0,0,0.452167,636.933,279.179)">
            <path d="M469,509.607L469,264" style="fill:none;stroke:white;stroke-width:2.21px;"/>
        </g>
        <g transform="matrix(0.313735,0,0,0.313735,711.858,349.726)">
            <path d="M469,509.607L469,264" style="fill:none;stroke:white;stroke-width:3.19px;"/>
        </g>
        <g transform="matrix(0.379284,0,0,0.379284,491.086,206.869)">
            <path d="M469,509.607L469,264" style="fill:none;stroke:white;stroke-width:2.64px;"/>
        </g>
        <g transform="matrix(0.403713,0,0,0.403713,489.629,201.42)">
            <path d="M469,509.607L469,264" style="fill:none;stroke:white;stroke-width:2.48px;"/>
        </g>
        <g transform="matrix(0.437859,0,0,0.437859,483.615,192.405)">
            <path d="M469,509.607L469,264" style="fill:none;stroke:white;stroke-width:2.28px;"/>
        </g>
        <g transform="matrix(0.482646,0,0,0.482646,472.61,180.582)">
            <path d="M469,509.607L469,264" style="fill:none;stroke:white;stroke-width:2.07px;"/>
        </g>
        <g transform="matrix(0.57656,0,0,0.57656,348.594,-134.212)">
            <path d="M469,509.607L469,264" style="fill:none;stroke:white;stroke-width:1.73px;"/>
        </g>
        <g transform="matrix(0.55373,0,0,0.55373,369.301,-128.185)">
            <path d="M469,509.607L469,264" style="fill:none;stroke:white;stroke-width:1.81px;"/>
        </g>
        <g transform="matrix(0.578159,0,0,0.578159,367.843,-134.634)">
            <path d="M469,509.607L469,264" style="fill:none;stroke:white;stroke-width:1.73px;"/>
        </g>
        <g transform="matrix(0.727207,0,0,0.727207,287.94,16.0174)">
            <path d="M469,509.607L469,264" style="fill:none;stroke:white;stroke-width:1.38px;"/>
        </g>
        <g transform="matrix(0.759779,0,0,0.759779,282.664,1.41833)">
            <path d="M469,509.607L469,264" style="fill:none;stroke:white;stroke-width:1.32px;"/>
        </g>
        <g transform="matrix(0.7504,0,0,0.7504,267.062,4.19806)">
            <path d="M469,509.607L469,264" style="fill:none;stroke:white;stroke-width:1.33px;"/>
        </g>
        <g transform="matrix(0.503111,0,0,0.503111,323.041,-31.7817)">
            <path d="M469,509.607L469,264" style="fill:none;stroke:white;stroke-width:1.99px;"/>
        </g>
        <g transform="matrix(0.503111,0,0,0.503111,333.041,-31.7817)">
            <path d="M469,509.607L469,264" style="fill:none;stroke:white;stroke-width:1.99px;"/>
        </g>
        <g transform="matrix(0.503111,0,0,0.503111,343.041,-31.7817)">
            <path d="M469,509.607L469,264" style="fill:none;stroke:white;stroke-width:1.99px;"/>
        </g>
        <g transform="matrix(0.674116,0,0,0.674116,272.84,-118.927)">
            <path d="M469,509.607L469,264" style="fill:none;stroke:white;stroke-width:1.48px;"/>
        </g>
    </g>
    <g id="K-Decoration" serif:id="K Decoration">
        <path d="M277,74L277,292" style="fill:none;stroke:white;stroke-width:5px;"/>
        <path d="M167,74L298,74" style="fill:none;stroke:white;stroke-width:5px;"/>
        <g transform="matrix(1,0,0,1,0,-11)">
            <path d="M156,74L309,74" style="fill:none;stroke:white;stroke-width:5px;"/>
        </g>
        <g transform="matrix(1,0,0,1,0,-8)">
            <path d="M159,74L306,74" style="fill:none;stroke:white;stroke-width:5px;"/>
        </g>
        <g transform="matrix(1,0,0,1,0,-4)">
            <path d="M164,74L301,74" style="fill:none;stroke:white;stroke-width:5px;"/>
        </g>
        <g transform="matrix(2.28571,0,0,2.07692,-822.429,-167.923)">
            <ellipse cx="635" cy="168" rx="7" ry="13" style="fill:none;stroke:white;stroke-width:2.29px;"/>
        </g>
        <g transform="matrix(1.03846,0,0,1.66667,-21.5769,-81.6667)">
            <path d="M639,124C639,122.344 636.843,121 634.185,121L617.815,121C615.157,121 613,122.344 613,124C613,125.656 615.157,127 617.815,127L634.185,127C636.843,127 639,125.656 639,124Z" style="fill:rgb(187,193,198);"/>
        </g>
        <g transform="matrix(1.03846,0,0,1.66667,-21.5769,-101.667)">
            <path d="M639,124C639,122.344 636.843,121 634.185,121L617.815,121C615.157,121 613,122.344 613,124C613,125.656 615.157,127 617.815,127L634.185,127C636.843,127 639,125.656 639,124Z" style="fill:rgb(187,193,198);"/>
        </g>
        <g transform="matrix(1.03846,0,0,1.66667,-21.5769,-120.667)">
            <path d="M639,124C639,122.344 636.843,121 634.185,121L617.815,121C615.157,121 613,122.344 613,124C613,125.656 615.157,127 617.815,127L634.185,127C636.843,127 639,125.656 639,124Z" style="fill:rgb(187,193,198);"/>
        </g>
        <g transform="matrix(0.957447,0,0,0.902174,24.3617,25.6196)">
            <path d="M596,233.47C596,226.588 590.735,221 584.25,221L560.75,221C554.265,221 549,226.588 549,233.47L549,300.53C549,307.412 554.265,313 560.75,313L584.25,313C590.735,313 596,307.412 596,300.53L596,233.47Z" style="fill:none;stroke:white;stroke-width:5.38px;"/>
        </g>
        <g transform="matrix(-1.29787,0,0,-0.793478,886.532,556.359)">
            <path d="M596,240.219C596,229.612 590.735,221 584.25,221L560.75,221C554.265,221 549,229.612 549,240.219L549,293.781C549,304.388 554.265,313 560.75,313L584.25,313C590.735,313 596,304.388 596,293.781L596,240.219Z" style="fill:none;stroke:white;stroke-width:4.65px;"/>
        </g>
        <g transform="matrix(-1.29787,0,0,-0.793478,1057.53,555.359)">
            <path d="M596,240.219C596,229.612 590.735,221 584.25,221L560.75,221C554.265,221 549,229.612 549,240.219L549,293.781C549,304.388 554.265,313 560.75,313L584.25,313C590.735,313 596,304.388 596,293.781L596,240.219Z" style="fill:none;stroke:white;stroke-width:4.65px;"/>
        </g>
        <g transform="matrix(-1.23404,0,0,-0.630435,937.489,404.326)">
            <path d="M596,236.518C596,227.953 592.448,221 588.072,221L556.928,221C552.552,221 549,227.953 549,236.518L549,297.482C549,306.047 552.552,313 556.928,313L588.072,313C592.448,313 596,306.047 596,297.482L596,236.518Z" style="fill:none;stroke:white;stroke-width:5.1px;"/>
        </g>
        <path d="M113,344.5L174,344.5" style="fill:none;stroke:white;stroke-width:3px;"/>
        <g transform="matrix(1,0,0,1,171,-1)">
            <path d="M113,344.5L174,344.5" style="fill:none;stroke:white;stroke-width:3px;"/>
        </g>
        <g transform="matrix(0.957447,0,0,0.902174,137.362,25.6196)">
            <path d="M596,233.47C596,226.588 590.735,221 584.25,221L560.75,221C554.265,221 549,226.588 549,233.47L549,300.53C549,307.412 554.265,313 560.75,313L584.25,313C590.735,313 596,307.412 596,300.53L596,233.47Z" style="fill:none;stroke:white;stroke-width:5.38px;"/>
        </g>
        <path d="M572.5,225L572.5,308" style="fill:none;stroke:white;stroke-width:3px;"/>
        <g transform="matrix(1,0,0,1,113,2.84217e-14)">
            <path d="M572.5,225L572.5,308" style="fill:none;stroke:white;stroke-width:3px;"/>
        </g>
        <path d="M550,266.5L595,266.5" style="fill:none;stroke:white;stroke-width:3px;"/>
        <g transform="matrix(1,0,0,1,113,0)">
            <path d="M550,266.5L595,266.5" style="fill:none;stroke:white;stroke-width:3px;"/>
        </g>
        <path d="M143.5,308L143.5,381" style="fill:none;stroke:white;stroke-width:3px;"/>
        <g transform="matrix(1,0,0,1,171,-1)">
            <path d="M143.5,308L143.5,381" style="fill:none;stroke:white;stroke-width:3px;"/>
        </g>
        <path d="M187,74L187,292" style="fill:none;stroke:white;stroke-width:5px;"/>
        <g transform="matrix(1.2069,0,0,1.06897,-44.2759,-8.2069)">
            <circle cx="228.5" cy="133.5" r="14.5" style="fill:rgb(187,193,198);"/>
        </g>
        <g transform="matrix(1.07692,0,0,1,-17.8077,0.5)">
            <path d="M238,112C238,108.137 235.087,105 231.5,105C227.913,105 225,108.137 225,112L225,153C225,156.863 227.913,160 231.5,160C235.087,160 238,156.863 238,153L238,112Z" style="fill:rgb(187,193,198);"/>
        </g>
    </g>
</svg>
